<svg width="676" height="396" viewBox="0 0 676 396" fill="none" xmlns="http://www.w3.org/2000/svg">
<g clip-path="url(#clip0_4708_60575)">
<g opacity="0.09">
<line y1="-0.5" x2="390.089" y2="-0.5" transform="matrix(0.866041 -0.499972 -0.866041 -0.499972 4.32642 202.65)" stroke="black"/>
<line y1="-0.5" x2="390.089" y2="-0.5" transform="matrix(-0.866041 -0.499972 -0.866041 0.499972 342.15 392.697)" stroke="black"/>
<line y1="-0.5" x2="390.089" y2="-0.5" transform="matrix(0.866041 -0.499972 -0.866041 -0.499972 27.8408 216.225)" stroke="black"/>
<line y1="-0.5" x2="390.089" y2="-0.5" transform="matrix(-0.866041 -0.499972 -0.866041 0.499972 365.664 379.122)" stroke="black"/>
<line y1="-0.5" x2="390.089" y2="-0.5" transform="matrix(0.866041 -0.499972 -0.866041 -0.499972 51.3552 229.8)" stroke="black"/>
<line y1="-0.5" x2="390.089" y2="-0.5" transform="matrix(-0.866041 -0.499972 -0.866041 0.499972 389.179 365.547)" stroke="black"/>
<line y1="-0.5" x2="390.089" y2="-0.5" transform="matrix(0.866041 -0.499972 -0.866041 -0.499972 74.8696 243.375)" stroke="black"/>
<line y1="-0.5" x2="390.089" y2="-0.5" transform="matrix(-0.866041 -0.499972 -0.866041 0.499972 412.693 351.972)" stroke="black"/>
<line y1="-0.5" x2="390.089" y2="-0.5" transform="matrix(0.866041 -0.499972 -0.866041 -0.499972 98.3838 256.95)" stroke="black"/>
<line y1="-0.5" x2="390.089" y2="-0.5" transform="matrix(-0.866041 -0.499972 -0.866041 0.499972 436.208 338.396)" stroke="black"/>
<line y1="-0.5" x2="390.089" y2="-0.5" transform="matrix(0.866041 -0.499972 -0.866041 -0.499972 121.898 270.525)" stroke="black"/>
<line y1="-0.5" x2="390.089" y2="-0.5" transform="matrix(-0.866041 -0.499972 -0.866041 0.499972 459.722 324.822)" stroke="black"/>
<line y1="-0.5" x2="390.089" y2="-0.5" transform="matrix(0.866041 -0.499972 -0.866041 -0.499972 145.413 284.099)" stroke="black"/>
<line y1="-0.5" x2="390.089" y2="-0.5" transform="matrix(-0.866041 -0.499972 -0.866041 0.499972 483.236 311.247)" stroke="black"/>
<line y1="-0.5" x2="390.089" y2="-0.5" transform="matrix(0.866041 -0.499972 -0.866041 -0.499972 168.927 297.675)" stroke="black"/>
<line y1="-0.5" x2="390.089" y2="-0.5" transform="matrix(-0.866041 -0.499972 -0.866041 0.499972 506.75 297.671)" stroke="black"/>
<line y1="-0.5" x2="390.089" y2="-0.5" transform="matrix(0.866041 -0.499972 -0.866041 -0.499972 192.432 311.247)" stroke="black"/>
<line y1="-0.5" x2="390.089" y2="-0.5" transform="matrix(-0.866041 -0.499972 -0.866041 0.499972 530.265 284.097)" stroke="black"/>
<line y1="-0.5" x2="390.089" y2="-0.5" transform="matrix(0.866041 -0.499972 -0.866041 -0.499972 215.946 324.822)" stroke="black"/>
<line y1="-0.5" x2="390.089" y2="-0.5" transform="matrix(-0.866041 -0.499972 -0.866041 0.499972 553.779 270.521)" stroke="black"/>
<line y1="-0.5" x2="390.089" y2="-0.5" transform="matrix(0.866041 -0.499972 -0.866041 -0.499972 239.461 338.396)" stroke="black"/>
<line y1="-0.5" x2="390.089" y2="-0.5" transform="matrix(-0.866041 -0.499972 -0.866041 0.499972 577.294 256.947)" stroke="black"/>
<path d="M263.066 352.024L600.899 156.991" stroke="black"/>
<line y1="-0.5" x2="390.089" y2="-0.5" transform="matrix(-0.866041 -0.499972 -0.866041 0.499972 600.808 243.372)" stroke="black"/>
<line y1="-0.5" x2="390.089" y2="-0.5" transform="matrix(0.866041 -0.499972 -0.866041 -0.499972 286.49 365.547)" stroke="black"/>
<line y1="-0.5" x2="390.089" y2="-0.5" transform="matrix(-0.866041 -0.499972 -0.866041 0.499972 624.322 229.797)" stroke="black"/>
<line y1="-0.5" x2="390.089" y2="-0.5" transform="matrix(0.866041 -0.499972 -0.866041 -0.499972 310.004 379.122)" stroke="black"/>
<line y1="-0.5" x2="390.089" y2="-0.5" transform="matrix(-0.866041 -0.499972 -0.866041 0.499972 647.837 216.221)" stroke="black"/>
<line y1="-0.5" x2="390.089" y2="-0.5" transform="matrix(0.866041 -0.499972 -0.866041 -0.499972 333.518 392.697)" stroke="black"/>
<line y1="-0.5" x2="390.089" y2="-0.5" transform="matrix(-0.866041 -0.499972 -0.866041 0.499972 671.351 202.647)" stroke="black"/>
</g>
</g>
<defs>
<clipPath id="clip0_4708_60575">
<rect width="676" height="396" fill="white"/>
</clipPath>
</defs>
</svg>
