<svg width="676" height="396" viewBox="0 0 676 396" fill="none" xmlns="http://www.w3.org/2000/svg">
<path d="M267.579 240.142L279.533 233.24L300.471 245.329L288.517 252.231L313.401 266.598L286.179 282.314L261.295 267.947L215.819 294.203L197.614 285.558L169.169 214.758L168.927 214.618L196.148 198.902L267.579 240.142ZM219.194 268.077L240.358 255.859L204.28 235.029L205.322 237.589L219.194 268.077Z" fill="#FFAB91"/>
<path d="M469.794 123.206L481.748 116.304L502.686 128.392L490.732 135.294L515.615 149.661L488.394 165.377L463.51 151.011L418.034 177.266L399.829 168.621L371.383 97.8211L371.142 97.6816L398.363 81.9654L469.794 123.206ZM421.409 151.141L442.572 138.922L406.495 118.093L407.536 120.653L421.409 151.141Z" fill="#FFAB91"/>
<path d="M204.358 238.027V235.237L219.236 268.014L240.39 255.926V258.018L218.771 270.339L204.358 238.027Z" fill="#D84315"/>
<path d="M406.573 121.09V118.301L421.451 151.078L442.605 138.99V141.082L420.986 153.402L406.573 121.09Z" fill="#D84315"/>
<rect width="109.114" height="136.405" transform="matrix(0.866025 -0.5 0.866025 0.5 220.342 184.925)" fill="url(#paint0_linear_4708_60575)"/>
<rect width="40.2357" height="70.0545" transform="matrix(0.866025 -0.5 0.866025 0.5 280.271 204.886)" fill="url(#paint1_linear_4708_60575)"/>
<rect x="25.1147" width="80.1144" height="107.405" transform="matrix(0.866025 -0.5 0.866025 0.5 223.707 197.482)" stroke="#1565C0" stroke-width="29"/>
<rect x="25.1147" width="80.1144" height="107.405" transform="matrix(0.866025 -0.5 0.866025 0.5 223.707 197.482)" stroke="url(#paint2_linear_4708_60575)" stroke-width="29"/>
<path fill-rule="evenodd" clip-rule="evenodd" d="M279.352 233.177L267.497 240.15L195.899 198.772L168.701 214.58L169.166 215.097L169.931 217.002L196.271 201.795L267.701 243.035L279.656 236.133L298.046 246.751L300.622 245.265L279.352 233.177ZM291.113 253.695L288.639 255.124L310.935 267.996L313.64 266.418L291.113 253.695Z" fill="#D84315"/>
<path fill-rule="evenodd" clip-rule="evenodd" d="M481.567 116.24L469.712 123.214L398.114 81.8359L370.916 97.6433L371.381 98.1603L372.146 100.065L398.486 84.8581L469.916 126.099L481.871 119.196L500.261 129.814L502.837 128.328L481.567 116.24ZM493.328 136.759L490.854 138.187L513.15 151.06L515.855 149.482L493.328 136.759Z" fill="#D84315"/>
<path d="M288.509 255.229V252.207L291.764 254.067L288.509 255.229Z" fill="#D84315"/>
<defs>
<linearGradient id="paint0_linear_4708_60575" x1="77.7511" y1="139.902" x2="-10.8629" y2="8.75671" gradientUnits="userSpaceOnUse">
<stop stop-color="#3076C8"/>
<stop offset="0.992076" stop-color="#91CBFA"/>
</linearGradient>
<linearGradient id="paint1_linear_4708_60575" x1="25.8162" y1="51.0447" x2="68.7073" y2="-5.41524" gradientUnits="userSpaceOnUse">
<stop stop-color="#2E75C7"/>
<stop offset="1" stop-color="#4283CC"/>
</linearGradient>
<linearGradient id="paint2_linear_4708_60575" x1="-16.1224" y1="-47.972" x2="123.494" y2="290.853" gradientUnits="userSpaceOnUse">
<stop stop-color="white"/>
<stop offset="1" stop-color="white" stop-opacity="0"/>
</linearGradient>
</defs>
</svg>
