<svg width="676" height="396" viewBox="0 0 676 396" fill="none" xmlns="http://www.w3.org/2000/svg">
<g clip-path="url(#clip0_4708_60575)">
<g filter="url(#filter0_d_4708_60575)">
<path d="M370.529 214.828L365.229 211.768V218.835L365.239 218.829C365.294 219.281 365.62 219.724 366.218 220.069L416.865 249.308C418.182 250.068 420.316 250.068 421.633 249.308L468.506 222.248C469.209 221.842 469.537 221.301 469.489 220.77V213.861L464.117 216.962L417.859 190.257C416.542 189.497 414.408 189.497 413.092 190.257L370.529 214.828Z" fill="url(#paint0_linear_4708_60575)"/>
</g>
<rect width="59.6284" height="63.9858" rx="5" transform="matrix(0.866041 -0.499972 0.866041 0.499972 363.835 211.812)" fill="#90CAF9"/>
<rect width="59.6284" height="63.9858" rx="5" transform="matrix(0.866041 -0.499972 0.866041 0.499972 363.835 211.812)" fill="url(#paint1_linear_4708_60575)"/>
<rect width="56.6816" height="60.8238" rx="5" transform="matrix(0.866041 -0.499972 0.866041 0.499972 366.48 211.761)" fill="url(#paint2_linear_4708_60575)"/>
<path d="M421.072 209.161C421.073 209.434 421.455 209.655 421.927 209.655L431.994 209.656C434.999 209.656 437.435 211.063 437.436 212.798C437.437 214.533 435.001 215.939 431.996 215.938L421.925 215.937C421.455 215.937 421.075 216.157 421.075 216.428L421.076 218.814C421.076 219.087 421.459 219.308 421.931 219.308L432.524 219.309C438.752 219.31 443.801 216.395 443.8 212.799C443.799 209.202 438.749 206.286 432.519 206.286L421.921 206.284C421.452 206.284 421.071 206.504 421.072 206.775L421.072 209.161Z" fill="#1E88E5"/>
<path d="M413.257 216.43C413.257 216.157 412.874 215.936 412.402 215.936L402.731 215.935C399.726 215.935 397.29 214.528 397.289 212.793C397.289 211.059 399.724 209.652 402.729 209.653L412.405 209.654C412.874 209.654 413.254 209.435 413.254 209.164L413.253 206.777C413.253 206.504 412.871 206.283 412.399 206.283L402.201 206.282C395.973 206.281 390.924 209.197 390.925 212.793C390.926 216.389 395.976 219.305 402.206 219.306L412.408 219.307C412.878 219.307 413.258 219.088 413.258 218.817L413.257 216.43Z" fill="#1E88E5"/>
<path d="M407.834 201.145L411.046 204.235C411.101 204.288 411.167 204.336 411.24 204.379C411.648 204.614 412.296 204.669 412.814 204.49C413.424 204.278 413.622 203.821 413.256 203.469L410.044 200.379C409.678 200.027 408.886 199.913 408.276 200.124C407.665 200.335 407.468 200.793 407.834 201.145V201.145Z" fill="#1E88E5"/>
<path d="M416.07 203.853C416.07 204.058 416.215 204.244 416.448 204.379C416.681 204.513 417.004 204.597 417.36 204.597C418.071 204.596 418.648 204.263 418.648 203.852L418.647 200.021C418.647 199.61 418.069 199.277 417.358 199.277C416.646 199.278 416.069 199.611 416.069 200.022L416.07 203.853Z" fill="#1E88E5"/>
<path d="M421.462 203.47C421.152 203.769 421.247 204.143 421.655 204.379C421.728 204.421 421.812 204.459 421.904 204.491C422.515 204.703 423.307 204.588 423.673 204.236L426.882 201.147C427.248 200.794 427.05 200.337 426.44 200.126C425.829 199.915 425.038 200.029 424.672 200.381L421.462 203.47Z" fill="#1E88E5"/>
<path d="M426.891 224.447L423.679 221.357C423.313 221.005 422.521 220.891 421.911 221.102C421.301 221.314 421.103 221.771 421.469 222.123L424.681 225.213C424.737 225.266 424.802 225.314 424.875 225.357C425.283 225.592 425.932 225.647 426.449 225.468C427.06 225.257 427.258 224.799 426.891 224.447V224.447Z" fill="#1E88E5"/>
<path d="M418.655 221.739C418.655 221.328 418.078 220.995 417.366 220.995C416.654 220.995 416.077 221.329 416.077 221.74L416.079 225.57C416.079 225.776 416.223 225.962 416.456 226.096C416.69 226.231 417.012 226.314 417.368 226.314C418.08 226.314 418.657 225.981 418.657 225.57L418.655 221.739Z" fill="#1E88E5"/>
<path d="M413.263 222.122C413.629 221.77 413.431 221.312 412.821 221.101C412.21 220.89 411.419 221.004 411.052 221.356L407.843 224.445C407.533 224.744 407.628 225.118 408.036 225.354C408.109 225.396 408.192 225.434 408.285 225.466C408.896 225.678 409.688 225.563 410.054 225.211L413.263 222.122Z" fill="#1E88E5"/>
<rect width="26.998" height="26.8293" transform="matrix(0.866041 -0.499972 0.866041 0.499972 361.708 293.126)" fill="#E3F2FD"/>
<rect width="24.2748" height="24.1231" transform="matrix(0.866041 -0.499972 0.866041 0.499972 364.084 294.115)" fill="#90CAF9"/>
<rect width="26.998" height="26.8293" transform="matrix(0.866041 -0.499972 0.866041 0.499972 291.505 89.4912)" fill="#E3F2FD"/>
<rect width="24.2748" height="24.1231" transform="matrix(0.866041 -0.499972 0.866041 0.499972 293.881 90.48)" fill="#90CAF9"/>
</g>
<defs>
<filter id="filter0_d_4708_60575" x="301.229" y="189.687" width="232.264" height="208.191" filterUnits="userSpaceOnUse" color-interpolation-filters="sRGB">
<feFlood flood-opacity="0" result="BackgroundImageFix"/>
<feColorMatrix in="SourceAlpha" type="matrix" values="0 0 0 0 0 0 0 0 0 0 0 0 0 0 0 0 0 0 127 0" result="hardAlpha"/>
<feOffset dy="84"/>
<feGaussianBlur stdDeviation="32"/>
<feColorMatrix type="matrix" values="0 0 0 0 0.129412 0 0 0 0 0.588235 0 0 0 0 0.952941 0 0 0 0.2 0"/>
<feBlend mode="normal" in2="BackgroundImageFix" result="effect1_dropShadow_4708_60575"/>
<feBlend mode="normal" in="SourceGraphic" in2="effect1_dropShadow_4708_60575" result="shape"/>
</filter>
<linearGradient id="paint0_linear_4708_60575" x1="417.361" y1="208.789" x2="365.229" y2="219.782" gradientUnits="userSpaceOnUse">
<stop stop-color="#2196F3"/>
<stop offset="1" stop-color="#B1DCFF"/>
</linearGradient>
<linearGradient id="paint1_linear_4708_60575" x1="0.503035" y1="2.68177" x2="20.3032" y2="42.2842" gradientUnits="userSpaceOnUse">
<stop stop-color="#FAFAFA" stop-opacity="0.74"/>
<stop offset="1" stop-color="#91CBFA"/>
</linearGradient>
<linearGradient id="paint2_linear_4708_60575" x1="-18.5494" y1="-44.8799" x2="14.7845" y2="40.5766" gradientUnits="userSpaceOnUse">
<stop stop-color="#FAFAFA" stop-opacity="0.74"/>
<stop offset="1" stop-color="#91CBFA"/>
</linearGradient>
<clipPath id="clip0_4708_60575">
<rect width="676" height="396" fill="white"/>
</clipPath>
</defs>
</svg>
